<svg aria-hidden="true" style="position: absolute; width: 0; height: 0; overflow: hidden;" version="1.1" xmlns="http://www.w3.org/2000/svg" xmlns:xlink="http://www.w3.org/1999/xlink">
<defs>
<symbol id="icon-facebook" viewBox="0 0 32 32">
<path d="M16.001 0C7.16285 0 0 7.16285 0 16.001C0 24.8372 7.16285 32 16.001 32C24.8372 32 32 24.8372 32 16.001C32 7.16285 24.8372 0 16.001 0ZM22.104 8.14741L19.8918 8.14905C18.1559 8.14905 17.82 8.97403 17.82 10.1841V12.8517H21.9583L21.9567 17.0318H17.82V27.7544H13.504V17.0302H9.89639V12.8517H13.504V9.76995C13.504 6.19425 15.6892 4.24558 18.8798 4.24558L22.1057 4.25049V8.14741H22.104Z"/>
</symbol>
<symbol id="icon-g" viewBox="0 0 32 32">
<path d="M16.6067 11.0233C16.6067 8.80451 15.2849 5.35486 12.7351 5.35486C11.9343 5.35486 11.0758 5.75588 10.5819 6.37133C10.0593 7.02034 9.90747 7.84859 9.90747 8.6527C9.90747 10.7147 11.1048 14.132 13.7504 14.132C14.5177 14.132 15.3439 13.7646 15.8394 13.2723C16.5461 12.5607 16.6067 11.5777 16.6067 11.0233Z"/>
<path d="M14.9474 19.1231C14.7014 19.0928 14.548 19.0928 14.2411 19.0928C13.9644 19.0928 12.3035 19.1533 11.0136 19.5867C10.3376 19.833 8.37134 20.5713 8.37134 22.7581C8.37134 24.9466 10.4927 26.5179 13.7807 26.5179C16.7315 26.5179 18.2996 25.0984 18.2996 23.1914C18.2996 21.6164 17.2844 20.7869 14.9474 19.1231Z"/>
<path d="M16.001 0C7.16285 0 0 7.16285 0 16.001C0 24.8371 7.16285 32 16.001 32C24.8371 32 32 24.8371 32 16.001C32 7.16285 24.8371 0 16.001 0ZM12.2731 27.8088C7.81514 27.8088 5.66513 25.6846 5.66513 23.4033C5.66513 22.2955 6.21798 20.7258 8.03079 19.6467C9.93609 18.4767 12.5194 18.3233 13.9022 18.2271C13.4704 17.6739 12.9814 17.0891 12.9814 16.1348C12.9814 15.6119 13.1349 15.3033 13.2867 14.9342C12.9479 14.9645 12.6119 14.9952 12.3034 14.9952C9.04728 14.9952 7.20295 12.5604 7.20295 10.1579C7.20295 8.74323 7.84706 7.17185 9.16881 6.0322C10.9223 4.584 13.317 4.19074 14.978 4.19074H21.0327L19.0345 5.44743H17.1309C17.8376 6.03219 19.3111 7.2631 19.3111 9.60503C19.3111 11.8827 18.0213 12.9634 16.7311 13.9799C16.3296 14.3797 15.8693 14.8094 15.8693 15.4891C15.8693 16.1651 16.3296 16.5342 16.6672 16.8141L17.775 17.6743C19.1274 18.8139 20.3567 19.8611 20.3567 21.9886C20.3567 24.8838 17.5577 27.8088 12.2731 27.8088ZM25.5357 15.6237V18.7231H24.0155V15.6237H20.9398V14.0859H24.0155V11.007H25.5357V14.0859H28.6273V15.6237H25.5357Z"/>
</symbol>
<symbol id="icon-insta" viewBox="0 0 33 32">
<path fill-rule="evenodd" clip-rule="evenodd" d="M21.3339 15.9499C21.3339 18.4833 19.1554 20.5372 16.4676 20.5372C13.7802 20.5372 11.6 18.4829 11.6 15.9499C11.6 13.4144 13.7802 11.3606 16.4676 11.3606C19.1554 11.3606 21.3339 13.4144 21.3339 15.9499Z"/>
<path fill-rule="evenodd" clip-rule="evenodd" d="M23.9998 16.2056C23.9998 20.1279 20.6269 23.3075 16.4671 23.3075C12.3061 23.3075 8.93314 20.1279 8.93314 16.2056C8.93314 15.5022 9.04333 14.8229 9.2452 14.1816H7.01917V24.1435C7.01917 24.6583 7.45319 25.0802 7.98183 25.0802H24.8586C25.3876 25.0802 25.8212 24.6583 25.8212 24.1435V14.1816H23.689C23.89 14.8229 23.9998 15.5022 23.9998 16.2056Z"/>
<path fill-rule="evenodd" clip-rule="evenodd" d="M21.9811 11.4947H24.7198C25.3212 11.4947 25.8107 11.0167 25.8107 10.4332V7.89157C25.8107 7.3064 25.3212 6.83008 24.7198 6.83008H21.9811C21.3797 6.83008 20.8901 7.3064 20.8901 7.89157V10.4332C20.8901 11.0167 21.3797 11.4947 21.9811 11.4947Z"/>
<path fill-rule="evenodd" clip-rule="evenodd" d="M16.4448 0C7.36152 0 0 7.16285 0 16.001C0 24.8372 7.36152 32 16.4448 32C25.526 32 32.8876 24.8372 32.8876 16.001C32.8876 7.16285 25.526 0 16.4448 0ZM25.4507 27.7896H7.43722C5.72511 27.7896 4.32717 26.5587 4.32717 24.7635V7.2361C4.32717 5.44252 5.72511 4.20998 7.43722 4.20998H25.4507C27.1624 4.20998 28.5608 5.44252 28.5608 7.2361V24.7635C28.5604 26.5587 27.1624 27.7896 25.4507 27.7896Z"/>
</symbol>
<symbol id="icon-star" viewBox="0 0 27 26">
<path d="M13.5 0L16.6705 9.95398L27 9.93112L18.63 16.0602L21.8435 26L13.5 19.834L5.15654 26L8.37 16.0602L0 9.93112L10.3295 9.95398L13.5 0Z"/>
</symbol>
<symbol id="icon-star-stroke" viewBox="0 0 27 26">
<path fill-rule="evenodd" clip-rule="evenodd" d="M16.6705 9.95398L13.5 0L10.3295 9.95398L0 9.93112L8.37 16.0602L5.15654 26L13.5 19.834L21.8435 26L18.63 16.0602L27 9.93112L16.6705 9.95398ZM21.3367 11.8008L15.3683 11.814L13.5 5.94852L11.6317 11.814L5.6633 11.8008L10.4996 15.3422L8.62007 21.156L13.5 17.5496L18.3799 21.156L16.5004 15.3422L21.3367 11.8008Z"/>
</symbol>
<symbol id="icon-logo-suntour" viewBox="0 0 179 44">
<path d="M31.6972 31.0817C31.6972 33.0476 31.3074 34.7976 30.5303 36.3331C29.7516 37.8686 28.6772 39.1589 27.3049 40.2039C25.9327 41.2482 24.2843 42.0464 22.3598 42.5994C20.4345 43.1524 18.346 43.4293 16.0942 43.4293C13.1044 43.4293 10.2899 43.0094 7.64762 42.1698C5.00613 41.3317 2.45717 39.9075 0 37.9003L3.93178 32.8023C5.77428 34.1536 7.72962 35.2083 9.79783 35.966C11.8653 36.7243 13.944 37.1028 16.0325 37.1028C18.817 37.1028 20.8949 36.5415 22.268 35.416C23.6395 34.292 24.3257 32.8716 24.3257 31.1532C24.3257 29.969 24.0495 29.0075 23.4966 28.2717C22.9436 27.5359 22.1958 26.9227 21.2546 26.4322C20.3126 25.9424 19.2375 25.5535 18.03 25.2676C16.8217 24.9817 15.5623 24.6747 14.2525 24.3467C12.6139 23.9796 11.0272 23.5093 9.49162 22.9368C7.95608 22.3643 6.60486 21.618 5.43722 20.6978C4.27033 19.7785 3.32764 18.6537 2.6114 17.3258C1.89442 15.9972 1.5363 14.3713 1.5363 12.4506C1.5363 10.6517 1.86357 8.99432 2.51886 7.4821C3.17341 5.96913 4.1161 4.66079 5.34468 3.5571C6.57326 2.4534 8.04711 1.58521 9.76698 0.95173C11.4868 0.317502 13.4114 0 15.5412 0C18.0797 0 20.588 0.254306 23.0655 0.760636C25.5429 1.26772 27.9083 2.23145 30.1609 3.65038L27.0281 9.39833C25.1442 8.25325 23.2701 7.45427 21.4073 7.00286C19.543 6.55296 17.711 6.32724 15.9091 6.32724C14.9258 6.32724 13.9944 6.45062 13.1142 6.69589C12.2332 6.94115 11.4552 7.3098 10.7796 7.80184C10.104 8.29312 9.56083 8.91758 9.15155 9.6752C8.74228 10.4336 8.53764 11.3243 8.53764 12.3475C8.53764 13.3715 8.80397 14.2314 9.33663 14.9281C9.86854 15.6248 10.575 16.2078 11.456 16.678C12.3362 17.1498 13.3391 17.538 14.4654 17.8449C15.5916 18.1519 16.7691 18.4287 17.9977 18.6755C20.0042 19.1269 21.8467 19.6581 23.5259 20.272C25.2044 20.8867 26.6481 21.6751 27.8564 22.6374C29.0639 23.5996 30.0066 24.756 30.6822 26.108C31.3578 27.4599 31.6972 29.1158 31.6972 31.0817Z"/>
<path d="M79.3907 15.1725C77.8183 13.2473 75.4409 12.285 72.2562 12.285C71.725 12.285 71.1435 12.3174 70.5115 12.3783C69.878 12.4408 69.164 12.5965 68.3681 12.8433C67.5713 13.0923 66.6745 13.4436 65.6739 13.8981C64.674 14.3532 63.5613 14.9529 62.3365 15.6969L61.7218 12.6537H61.5398H55.8249V33.9158C52.6621 36.1217 49.9506 37.2246 47.6905 37.2246C46.3739 37.2246 45.2424 36.8153 44.2952 35.9952C43.3488 35.1767 42.8755 33.7442 42.8755 31.6956V12.6529H36.364V32.2478C36.364 35.6484 37.2028 38.3606 38.8828 40.3867C40.5613 42.4143 43.0598 43.4277 46.3769 43.4277C47.4001 43.4277 48.6393 43.2328 50.0935 42.8446C51.5471 42.4557 53.4618 41.5446 55.837 40.1106L56.4456 43.0598H56.6021H62.3365H62.3485V21.6675C63.8999 20.691 65.37 19.9379 66.7588 19.4075C68.1506 18.8771 69.4003 18.6108 70.5055 18.6108C71.8567 18.6108 72.983 19.0088 73.8843 19.8055C74.7848 20.6022 75.2355 22.0437 75.2355 24.1255V43.059H81.7463V23.1557C81.747 19.7589 80.9616 17.097 79.3907 15.1725Z"/>
<path d="M93.9216 3.43975V43.0606H90.9731V3.43975H77.7047V0.736572H107.067V3.43975H93.9216Z"/>
<path d="M128.692 32.4337C128.692 35.8735 127.603 38.5661 125.427 40.5109C123.25 42.4565 120.353 43.4285 116.741 43.4285C114.974 43.4285 113.363 43.172 111.906 42.6604C110.448 42.1488 109.195 41.4115 108.149 40.4492C107.102 39.4877 106.291 38.3404 105.716 37.0095C105.141 35.6794 104.854 34.1739 104.854 32.4947V23.2807C104.854 21.6436 105.171 20.1584 105.808 18.8268C106.444 17.4966 107.306 16.3696 108.394 15.4487C109.483 14.5271 110.746 13.8116 112.182 13.2993C113.619 12.7877 115.158 12.5311 116.803 12.5311C118.485 12.5311 120.056 12.7884 121.516 13.2993C122.974 13.8124 124.237 14.5279 125.303 15.4487C126.372 16.3703 127.202 17.4974 127.797 18.8268C128.392 20.1584 128.691 21.6436 128.691 23.2807V32.4337H128.692ZM125.927 24.1007C125.927 22.4591 125.651 21.0635 125.098 19.9139C124.546 18.7658 123.839 17.8307 122.979 17.1122C122.119 16.3944 121.144 15.8708 120.058 15.5413C118.972 15.2133 117.898 15.0492 116.833 15.0492C115.728 15.0492 114.622 15.214 113.516 15.5413C112.411 15.8708 111.429 16.3944 110.567 17.1122C109.707 17.8307 109.001 18.7651 108.449 19.9139C107.896 21.0635 107.62 22.4598 107.62 24.1007V31.7972C107.62 33.4795 107.875 34.8969 108.388 36.045C108.9 37.1953 109.574 38.129 110.414 38.8475C111.253 39.566 112.226 40.0889 113.333 40.4176C114.438 40.7464 115.605 40.9097 116.833 40.9097C118.063 40.9097 119.219 40.7366 120.304 40.3875C121.39 40.0377 122.355 39.4937 123.194 38.7549C124.033 38.0161 124.699 37.0727 125.191 35.9231C125.681 34.7728 125.927 33.3975 125.927 31.7972V24.1007Z"/>
<path d="M155.71 43.0605L155.228 38.8828C153.835 39.7427 152.596 40.4597 151.512 41.0322C150.427 41.607 149.444 42.0772 148.564 42.4459C147.682 42.8138 146.874 43.0688 146.137 43.2133C145.4 43.3562 144.682 43.4284 143.987 43.4284C140.874 43.4284 138.479 42.579 136.8 40.8795C135.121 39.1799 134.281 36.5903 134.281 33.1085V12.8989H137.045V32.3892C137.045 35.373 137.68 37.509 138.95 38.7962C140.219 40.0828 141.979 40.7253 144.232 40.7253C145.706 40.7253 147.405 40.2874 149.33 39.4079C151.255 38.5299 153.22 37.3751 155.227 35.9448V12.8989H157.991V43.0605H155.71Z"/>
<path d="M179 15.7247C176.256 16.0121 173.983 16.6065 172.181 17.5063C170.379 18.4076 168.967 19.2059 167.943 19.9025V43.0605H165.179V12.8989H167.513L167.943 17.3837H168.004C168.618 16.8517 169.345 16.3078 170.185 15.7556C171.023 15.2034 171.935 14.6918 172.918 14.22C173.901 13.7498 174.914 13.3707 175.959 13.0833C177.003 12.7974 178.017 12.613 178.999 12.5303V15.7247H179Z"/>
</symbol>

</defs>
</svg>
